<svg width="22" height="22" viewBox="0 0 22 22" fill="none" xmlns="http://www.w3.org/2000/svg">
<path d="M15 21.75H6.99998C2.37998 21.75 1.51998 19.6 1.29998 17.51L0.549983 9.5C0.439983 8.45 0.409983 6.9 1.44998 5.74C2.34998 4.74 3.83998 4.26 5.99998 4.26H16C18.17 4.26 19.66 4.75 20.55 5.74C21.59 6.9 21.56 8.45 21.45 9.51L20.7 17.5C20.48 19.6 19.62 21.75 15 21.75ZM5.99998 5.75C4.30998 5.75 3.14998 6.08 2.55998 6.74C2.06998 7.28 1.90998 8.11 2.03998 9.35L2.78998 17.36C2.95998 18.94 3.38998 20.25 6.99998 20.25H15C18.6 20.25 19.04 18.94 19.21 17.35L19.96 9.36C20.09 8.11 19.93 7.28 19.44 6.74C18.85 6.08 17.69 5.75 16 5.75H5.99998Z" fill="#7E92A2"/>
<path d="M15 5.75C14.59 5.75 14.25 5.41 14.25 5V4.2C14.25 2.42 14.25 1.75 11.8 1.75H10.2C7.74998 1.75 7.74998 2.42 7.74998 4.2V5C7.74998 5.41 7.40998 5.75 6.99998 5.75C6.58998 5.75 6.24998 5.41 6.24998 5V4.2C6.24998 2.44 6.24998 0.25 10.2 0.25H11.8C15.75 0.25 15.75 2.44 15.75 4.2V5C15.75 5.41 15.41 5.75 15 5.75Z" fill="#7E92A2"/>
<path d="M11 15.75C8.24998 15.75 8.24998 14.05 8.24998 13.03V12C8.24998 10.59 8.58998 10.25 9.99998 10.25H12C13.41 10.25 13.75 10.59 13.75 12V13C13.75 14.04 13.75 15.75 11 15.75ZM9.74998 11.75C9.74998 11.83 9.74998 11.92 9.74998 12V13.03C9.74998 14.06 9.74998 14.25 11 14.25C12.25 14.25 12.25 14.09 12.25 13.02V12C12.25 11.92 12.25 11.83 12.25 11.75C12.17 11.75 12.08 11.75 12 11.75H9.99998C9.91998 11.75 9.82998 11.75 9.74998 11.75Z" fill="#7E92A2"/>
<path d="M13 13.77C12.63 13.77 12.3 13.49 12.26 13.11C12.21 12.7 12.5 12.32 12.91 12.27C15.55 11.94 18.08 10.94 20.21 9.39C20.54 9.14 21.01 9.22 21.26 9.56C21.5 9.89 21.43 10.36 21.09 10.61C18.75 12.31 15.99 13.4 13.09 13.77C13.06 13.77 13.03 13.77 13 13.77Z" fill="#7E92A2"/>
<path d="M8.99998 13.78C8.96998 13.78 8.93998 13.78 8.90998 13.78C6.16998 13.47 3.49998 12.47 1.18998 10.89C0.849983 10.66 0.759983 10.19 0.989983 9.85C1.21998 9.51 1.68998 9.42 2.02998 9.65C4.13998 11.09 6.56998 12 9.06998 12.29C9.47998 12.34 9.77998 12.71 9.72998 13.12C9.69998 13.5 9.37998 13.78 8.99998 13.78Z" fill="#7E92A2"/>
</svg>
