<svg width="19" height="18" viewBox="0 0 19 18" fill="none" xmlns="http://www.w3.org/2000/svg">
<path d="M17.4999 16.2599H8.42993C7.97993 16.2599 7.60993 15.8899 7.60993 15.4399C7.60993 14.9899 7.97993 14.6199 8.42993 14.6199H17.4999C17.9499 14.6199 18.3199 14.9899 18.3199 15.4399C18.3199 15.8999 17.9499 16.2599 17.4999 16.2599Z" fill="#7E92A2"/>
<path d="M17.4999 9.96992H8.42993C7.97993 9.96992 7.60993 9.59992 7.60993 9.14992C7.60993 8.69992 7.97993 8.32992 8.42993 8.32992H17.4999C17.9499 8.32992 18.3199 8.69992 18.3199 9.14992C18.3199 9.59992 17.9499 9.96992 17.4999 9.96992Z" fill="#7E92A2"/>
<path d="M17.4999 3.66992H8.42993C7.97993 3.66992 7.60993 3.29992 7.60993 2.84992C7.60993 2.39992 7.97993 2.02992 8.42993 2.02992H17.4999C17.9499 2.02992 18.3199 2.39992 18.3199 2.84992C18.3199 3.29992 17.9499 3.66992 17.4999 3.66992Z" fill="#7E92A2"/>
<path d="M2.40993 5.02992C2.18993 5.02992 1.97993 4.93992 1.82993 4.78992L0.919932 3.87992C0.599932 3.55992 0.599932 3.03992 0.919932 2.71992C1.23993 2.39992 1.75993 2.39992 2.07993 2.71992L2.40993 3.04992L4.54993 0.909922C4.86993 0.589922 5.38993 0.589922 5.70993 0.909922C6.02993 1.22992 6.02993 1.74992 5.70993 2.06992L2.98993 4.78992C2.82993 4.93992 2.62993 5.02992 2.40993 5.02992Z" fill="#7E92A2"/>
<path d="M2.40993 11.3299C2.19993 11.3299 1.98993 11.2499 1.82993 11.0899L0.919932 10.1799C0.599932 9.85992 0.599932 9.33992 0.919932 9.01992C1.23993 8.69992 1.75993 8.69992 2.07993 9.01992L2.40993 9.34992L4.54993 7.20992C4.86993 6.88992 5.38993 6.88992 5.70993 7.20992C6.02993 7.52992 6.02993 8.04992 5.70993 8.36992L2.98993 11.0899C2.82993 11.2499 2.61993 11.3299 2.40993 11.3299Z" fill="#7E92A2"/>
<path d="M2.40993 17.3299C2.19993 17.3299 1.98993 17.2499 1.82993 17.0899L0.919932 16.1799C0.599932 15.8599 0.599932 15.3399 0.919932 15.0199C1.23993 14.6999 1.75993 14.6999 2.07993 15.0199L2.40993 15.3499L4.54993 13.2099C4.86993 12.8899 5.38993 12.8899 5.70993 13.2099C6.02993 13.5299 6.02993 14.0499 5.70993 14.3699L2.98993 17.0899C2.82993 17.2499 2.61993 17.3299 2.40993 17.3299Z" fill="#7E92A2"/>
</svg>
